<?xml version="1.0" encoding="iso-8859-1"?>
<!-- Uploaded to: SVG Repo, www.svgrepo.com, Generator: SVG Repo Mixer Tools -->
<svg fill="#000000" height="800px" width="800px" version="1.1" id="Layer_1" xmlns="http://www.w3.org/2000/svg" xmlns:xlink="http://www.w3.org/1999/xlink" 
	 viewBox="0 0 512 512" xml:space="preserve">
<g>
	<g>
		<g>
			<circle cx="346.96" cy="426.897" r="7.749"/>
			<circle cx="346.96" cy="463.45" r="7.749"/>
			<circle cx="301.779" cy="207.578" r="7.749"/>
			<circle cx="346.96" cy="390.344" r="7.749"/>
			<circle cx="346.96" cy="353.791" r="7.749"/>
			<circle cx="301.779" cy="244.131" r="7.749"/>
			<circle cx="301.779" cy="426.897" r="7.749"/>
			<circle cx="301.779" cy="390.344" r="7.749"/>
			<circle cx="346.96" cy="317.238" r="7.749"/>
			<circle cx="301.779" cy="317.238" r="7.749"/>
			<circle cx="301.779" cy="280.684" r="7.749"/>
			<circle cx="301.779" cy="353.791" r="7.749"/>
			<circle cx="392.14" cy="390.344" r="7.749"/>
			<circle cx="392.14" cy="353.791" r="7.749"/>
			<circle cx="392.14" cy="317.238" r="7.749"/>
			<circle cx="392.14" cy="280.684" r="7.749"/>
			<circle cx="392.14" cy="244.131" r="7.749"/>
			<circle cx="392.14" cy="207.578" r="7.749"/>
			<circle cx="346.96" cy="207.578" r="7.749"/>
			<circle cx="346.96" cy="244.131" r="7.749"/>
			<circle cx="346.96" cy="280.684" r="7.749"/>
			<circle cx="301.779" cy="463.45" r="7.749"/>
			<circle cx="392.14" cy="463.45" r="7.749"/>
			<circle cx="392.14" cy="426.897" r="7.749"/>
			<circle cx="166.239" cy="426.897" r="7.749"/>
			<circle cx="166.239" cy="390.344" r="7.749"/>
			<circle cx="166.239" cy="463.45" r="7.749"/>
			<circle cx="121.059" cy="207.578" r="7.749"/>
			<circle cx="166.239" cy="353.791" r="7.749"/>
			<circle cx="256.6" cy="207.578" r="7.749"/>
			<circle cx="166.239" cy="244.131" r="7.749"/>
			<circle cx="166.239" cy="280.684" r="7.749"/>
			<circle cx="121.059" cy="244.131" r="7.749"/>
			<circle cx="121.059" cy="353.791" r="7.749"/>
			<circle cx="121.059" cy="463.45" r="7.749"/>
			<path d="M417.575,136.827l22.314-104.763c2.239-10.514-4.494-20.891-15.01-23.133l-39.903-8.498
				c-5.079-1.084-10.29-0.115-14.669,2.725c-2.234,1.449-4.105,3.299-5.551,5.434c-2.811-2.174-6.156-3.556-9.767-3.949
				l-40.563-4.396c-10.681-1.163-20.327,6.592-21.486,17.28l-12.901,118.99h-99.604L149.599,16.056
				C146.933,5.643,136.29-0.663,125.874,2.003L86.346,12.121c-5.033,1.289-9.269,4.471-11.927,8.959
				c-2.66,4.489-3.413,9.733-2.124,14.765l25.784,100.724c-14.032,0.837-25.193,12.513-25.193,26.753
				c0,11.993,7.918,22.17,18.801,25.583v277.488c0,25.147,20.458,45.605,45.606,45.605h238.617
				c25.147,0,45.606-20.458,45.606-45.605V188.907c10.883-3.412,18.801-13.589,18.801-25.583
				C440.315,149.926,430.434,138.792,417.575,136.827z M377.5,18.776c0.258-1.213,1.064-1.891,1.522-2.189
				c0.457-0.297,1.401-0.756,2.619-0.496l39.904,8.498c1.851,0.394,3.081,2.29,2.687,4.14l-2.962,13.904l-46.732-9.953L377.5,18.776
				z M371.203,48.337l46.733,9.953l-2.211,10.385l-46.733-9.954L371.203,48.337z M367.009,74.668l45.379,9.666l-11.115,52.185
				h-40.972L367.009,74.668z M308.855,19.255c0.204-1.88,1.963-3.298,3.846-3.091l40.562,4.396c1.234,0.133,1.993,0.868,2.334,1.292
				c0.342,0.425,0.894,1.32,0.761,2.553l-1.533,14.133l-47.502-5.151L308.855,19.255z M305.597,49.302l47.502,5.151l-1.145,10.558
				l-47.502-5.151L305.597,49.302z M302.727,75.775l47.502,5.151l-6.028,55.593h-48.06L302.727,75.775z M148.189,75.104
				l15.721,61.415h-49.32l-12.688-49.566L148.189,75.104z M87.803,31.875c-0.307-1.201,0.112-2.167,0.39-2.635
				c0.278-0.47,0.923-1.302,2.125-1.609l39.524-10.119c1.83-0.467,3.779,0.683,4.248,2.516l3.525,13.773L91.328,45.648
				L87.803,31.875z M97.932,71.444l-2.634-10.288l46.287-11.849l2.634,10.287L97.932,71.444z M405.505,466.395
				c0,16.32-13.278,29.597-29.597,29.597H137.291c-16.32,0-29.597-13.278-29.597-29.597V190.129h297.81V466.395z M413.509,174.121
				H99.69c-5.953,0-10.796-4.843-10.796-10.795c0-5.954,4.843-10.797,10.796-10.797h313.819c5.953,0,10.796,4.844,10.796,10.797
				C424.307,169.277,419.462,174.121,413.509,174.121z"/>
			<circle cx="121.059" cy="426.897" r="7.749"/>
			<circle cx="166.239" cy="207.578" r="7.749"/>
			<circle cx="121.059" cy="317.238" r="7.749"/>
			<circle cx="121.059" cy="280.684" r="7.749"/>
			<circle cx="121.059" cy="390.344" r="7.749"/>
			<circle cx="166.239" cy="317.238" r="7.749"/>
			<circle cx="211.419" cy="463.45" r="7.749"/>
			<circle cx="256.6" cy="463.45" r="7.749"/>
			<circle cx="256.6" cy="426.897" r="7.749"/>
			<circle cx="256.6" cy="353.791" r="7.749"/>
			<circle cx="256.6" cy="244.131" r="7.749"/>
			<circle cx="256.6" cy="280.684" r="7.749"/>
			<circle cx="256.6" cy="317.238" r="7.749"/>
			<circle cx="256.6" cy="390.344" r="7.749"/>
			<circle cx="211.419" cy="353.791" r="7.749"/>
			<circle cx="211.419" cy="390.344" r="7.749"/>
			<circle cx="211.419" cy="426.897" r="7.749"/>
			<circle cx="211.419" cy="244.131" r="7.749"/>
			<circle cx="211.419" cy="207.578" r="7.749"/>
			<circle cx="211.419" cy="317.238" r="7.749"/>
			<circle cx="211.419" cy="280.684" r="7.749"/>
		</g>
	</g>
</g>
</svg>