<?xml version="1.0" encoding="iso-8859-1"?>
<!-- Uploaded to: SVG Repo, www.svgrepo.com, Generator: SVG Repo Mixer Tools -->
<svg fill="#000000" height="800px" width="800px" version="1.1" id="Layer_1" xmlns="http://www.w3.org/2000/svg" xmlns:xlink="http://www.w3.org/1999/xlink" 
	 viewBox="0 0 489.993 489.993" xml:space="preserve">
<g>
	<g>
		<g>
			<path d="M328.271,153.123h-0.673v-28.879c0-4.228-3.424-7.656-7.656-7.656h-0.665V7.656c0-4.228-3.424-7.656-7.656-7.656h-133.25
				c-4.232,0-7.656,3.428-7.656,7.656v108.932h-0.665c-4.232,0-7.656,3.428-7.656,7.656v28.879h-0.673
				c-4.232,0-7.656,3.428-7.656,7.656v238.282c0,50.139,40.793,90.932,90.932,90.932c50.139,0,90.932-40.793,90.932-90.932V160.779
				C335.927,156.551,332.503,153.123,328.271,153.123z M186.027,15.312h117.938v101.276H186.027V15.312z M177.705,131.9h134.581
				v21.223H177.705V131.9z M320.615,399.062c0,41.697-33.922,75.619-75.62,75.619c-41.697,0-75.619-33.922-75.619-75.619V199.06
				h99.53c4.232,0,7.656-3.428,7.656-7.656s-3.424-7.656-7.656-7.656h-99.53v-15.312h151.239v15.312h-22.026
				c-4.232,0-7.656,3.428-7.656,7.656c0,4.228,3.424,7.656,7.656,7.656h22.026V399.062z"/>
			<path d="M228.337,33.312c-4.232,0-7.656,3.428-7.656,7.656v42.307h-8.995c-4.232,0-7.656,3.428-7.656,7.656
				c0,4.228,3.424,7.656,7.656,7.656h16.651c4.232,0,7.656-3.428,7.656-7.656V40.969C235.993,36.74,232.569,33.312,228.337,33.312z"
				/>
			<path d="M278.304,33.312c-4.232,0-7.656,3.428-7.656,7.656v42.307h-8.995c-4.232,0-7.656,3.428-7.656,7.656
				c0,4.228,3.424,7.656,7.656,7.656h16.65c4.232,0,7.656-3.428,7.656-7.656V40.969C285.96,36.74,282.536,33.312,278.304,33.312z"/>
		</g>
	</g>
</g>
</svg>