<?xml version="1.0" encoding="iso-8859-1"?>
<!-- Uploaded to: SVG Repo, www.svgrepo.com, Generator: SVG Repo Mixer Tools -->
<svg height="800px" width="800px" version="1.1" id="Layer_1" xmlns="http://www.w3.org/2000/svg" xmlns:xlink="http://www.w3.org/1999/xlink" 
	 viewBox="0 0 512 512" xml:space="preserve">
<path style="fill:#CFF09E;" d="M395.483,80.628c0-36.948-29.954-66.902-66.902-66.902H183.419c-36.95,0-66.902,29.954-66.902,66.902
	v68.737h278.966V80.628z"/>
<g>
	<path style="fill:#507C5C;" d="M395.483,163.089H116.517c-7.58,0-13.725-6.146-13.725-13.725V80.628
		C102.792,36.17,138.961,0,183.419,0h145.161c44.459,0,80.628,36.17,80.628,80.628v68.736
		C409.208,156.944,403.063,163.089,395.483,163.089z M130.242,135.638h251.515V80.628c0-29.321-23.854-53.177-53.177-53.177H183.419
		c-29.323,0-53.177,23.856-53.177,53.177V135.638L130.242,135.638z"/>
	<path style="fill:#507C5C;" d="M328.579,512h-145.16c-44.459,0-80.628-36.17-80.628-80.628V149.364
		c0-7.579,6.145-13.725,13.725-13.725h278.966c7.58,0,13.725,6.146,13.725,13.725v165.149c0,7.579-6.145,13.725-13.725,13.725
		c-7.58,0-13.725-6.146-13.725-13.725V163.089H130.242v268.283c0,29.321,23.854,53.177,53.177,53.177h145.161
		c29.323,0,53.177-23.856,53.177-53.177v-36.243c0-7.579,6.145-13.725,13.725-13.725s13.725,6.146,13.725,13.725v36.243
		C409.208,475.831,373.038,512,328.579,512z"/>
	<path style="fill:#507C5C;" d="M256,395.131c-7.58,0-13.725-6.146-13.725-13.725V221.963c0-7.579,6.145-13.725,13.725-13.725
		s13.725,6.146,13.725,13.725v159.442C269.725,388.985,263.58,395.131,256,395.131z"/>
	<path style="fill:#507C5C;" d="M287.977,235.689c-3.512,0-7.026-1.341-9.705-4.02l-22.273-22.273l-22.272,22.273
		c-5.36,5.358-14.051,5.358-19.412,0c-5.36-5.36-5.36-14.051,0-19.412l31.978-31.978c5.36-5.358,14.051-5.358,19.412,0
		l31.978,31.978c5.36,5.36,5.36,14.051,0,19.412C295.003,234.348,291.489,235.689,287.977,235.689z"/>
	<path style="fill:#507C5C;" d="M263.538,331.999c-5.85,0-11.268-3.769-13.101-9.647c-2.254-7.237,1.786-14.932,9.023-17.185
		l46.173-14.381v-38.392c0-7.579,6.145-13.725,13.725-13.725c7.58,0,13.725,6.146,13.725,13.725v48.493
		c0,6.008-3.908,11.318-9.643,13.105l-55.816,17.384C266.265,331.796,264.89,331.999,263.538,331.999z"/>
	<path style="fill:#507C5C;" d="M248.461,373.179c-1.352,0-2.727-0.2-4.086-0.624l-55.816-17.384
		c-5.736-1.787-9.643-7.097-9.643-13.105v-48.493c0-7.579,6.145-13.725,13.725-13.725c7.58,0,13.725,6.146,13.725,13.725v38.392
		l46.173,14.381c7.237,2.255,11.277,9.948,9.023,17.185C259.73,369.41,254.31,373.179,248.461,373.179z"/>
</g>
<circle style="fill:#CFF09E;" cx="256.003" cy="416.987" r="40.669"/>
<path style="fill:#507C5C;" d="M256,471.379c-29.994,0-54.395-24.401-54.395-54.396c0-29.994,24.401-54.395,54.395-54.395
	s54.395,24.401,54.395,54.395C310.395,446.978,285.994,471.379,256,471.379z M256,390.04c-14.858,0-26.944,12.088-26.944,26.944
	c0,14.858,12.088,26.945,26.944,26.945c14.856,0,26.944-12.088,26.944-26.945C282.944,402.127,270.856,390.04,256,390.04z"/>
</svg>