<?xml version="1.0" encoding="iso-8859-1"?>
<!-- Uploaded to: SVG Repo, www.svgrepo.com, Generator: SVG Repo Mixer Tools -->
<svg version="1.1" id="Layer_1" xmlns="http://www.w3.org/2000/svg" xmlns:xlink="http://www.w3.org/1999/xlink" 
	 viewBox="0 0 512 512" xml:space="preserve">
<polygon style="fill:#FFCD71;" points="334.365,177.636 54.386,457.616 92.9,480.724 365.177,208.448 "/>
<polygon style="fill:#FFE1AA;" points="342.068,185.34 62.089,465.319 31.276,419.1 303.553,146.824 "/>
<polygon style="fill:#0B4E31;" points="353.622,150.676 330.513,204.596 353.622,227.705 376.732,204.596 "/>
<g>
	<polygon style="fill:#10744A;" points="307.405,135.27 284.296,158.379 330.513,204.596 369.028,166.082 	"/>
	<polygon style="fill:#10744A;" points="480.721,54.389 401.766,102.533 353.622,181.488 376.732,204.596 503.829,77.498 	"/>
</g>
<polygon style="fill:#FFE1AA;" points="92.9,480.724 69.792,503.833 46.682,480.724 42.831,453.764 69.792,457.616 "/>
<rect x="22.63" y="422.675" transform="matrix(-0.7071 0.7071 -0.7071 -0.7071 384.6597 740.4855)" style="fill:#FFF5E3;" width="32.681" height="54.468"/>
<rect x="304.193" y="62.146" transform="matrix(-0.7071 0.7071 -0.7071 -0.7071 739.7631 -116.767)" style="fill:#169B62;" width="179.743" height="65.361"/>
<polygon style="fill:#10744A;" points="457.611,77.497 419.097,116.013 391.539,119.267 395.988,92.904 434.503,54.389 "/>
<rect x="370.346" y="103.521" transform="matrix(-0.7071 0.7071 -0.7071 -0.7071 754.1671 -72.6646)" style="fill:#0B4E31;" width="43.574" height="32.681"/>
<path d="M509.606,71.72L440.279,2.393c-3.191-3.191-8.364-3.191-11.554,0L278.519,152.602c-2.514,2.514-3.038,6.257-1.59,9.293
	L2.393,436.43c-3.191,3.191-3.191,8.364,0,11.554l61.623,61.623c1.595,1.595,3.686,2.393,5.777,2.393
	c2.09,0,4.182-0.797,5.777-2.393l274.535-274.535c1.11,0.529,2.312,0.803,3.515,0.803c2.09,0,4.182-0.797,5.777-2.393
	L509.606,83.275C512.798,80.084,512.798,74.911,509.606,71.72z M92.903,469.167l-50.069-50.069l245.313-245.313l50.069,50.069
	L92.903,469.167z M69.793,492.277l-50.069-50.069l11.555-11.555l50.069,50.069L69.793,492.277z M376.732,193.043L359.4,175.711
	c-3.191-3.191-8.364-3.191-11.554,0c-3.191,3.191-3.191,8.364,0,11.554l17.332,17.332l-11.555,11.555l-57.772-57.772l11.555-11.555
	l17.332,17.332c1.595,1.595,3.686,2.393,5.777,2.393s4.182-0.797,5.777-2.393c3.191-3.191,3.191-8.364,0-11.554l-17.332-17.332
	L434.503,19.725l57.772,57.772L376.732,193.043z"/>
<path d="M428.726,48.612l-69.327,69.327c-3.191,3.191-3.191,8.364,0,11.554l23.109,23.109c1.595,1.595,3.686,2.393,5.777,2.393
	c2.091,0,4.182-0.797,5.777-2.393l69.327-69.327c3.191-3.191,3.191-8.364,0-11.554c-3.191-3.191-8.364-3.191-11.554,0
	l-32.737,32.738l-11.555-11.555l32.738-32.737c3.191-3.191,3.191-8.364,0-11.554C437.089,45.421,431.915,45.421,428.726,48.612z
	 M407.543,116.013l-19.258,19.258l-11.555-11.555l19.258-19.258L407.543,116.013z"/>
<circle cx="246.958" cy="265.043" r="8.17"/>
<circle cx="216.151" cy="295.85" r="8.17"/>
<circle cx="185.333" cy="326.668" r="8.17"/>
<circle cx="154.526" cy="357.475" r="8.17"/>
<circle cx="123.719" cy="388.282" r="8.17"/>
<circle cx="92.9" cy="419.1" r="8.17"/>
</svg>